<svg xmlns="http://www.w3.org/2000/svg" xmlns:xlink="http://www.w3.org/1999/xlink" viewBox="0 0 511.00 190.00" width="511.00" height="190.00" font-family="Calibri,Carlito,'Segoe UI',Arial,sans-serif"><rect width="100%" height="100%" fill="#fff"/><g transform="translate(-45.00 -446.00)"><path d="M46.10 612.47H242.60V635.12H46.10Z" fill-rule="evenodd" fill="#ffffff" stroke="none" stroke-width="0.00" stroke-linejoin="round"/><path d="M83.60 453.59H99.80V476.24H83.60Z" fill-rule="evenodd" fill="#ffffff" stroke="none" stroke-width="0.00" stroke-linejoin="round"/><path d="M54.40 543.74H70.60V566.39H54.40Z" fill-rule="evenodd" fill="#ffffff" stroke="none" stroke-width="0.00" stroke-linejoin="round"/><path d="M307.75 545.39H323.95V568.04H307.75Z" fill-rule="evenodd" fill="#ffffff" stroke="none" stroke-width="0.00" stroke-linejoin="round"/><path d="M84.00 484.56H143.00V507.21H84.00Z" fill-rule="evenodd" fill="#ffffff" stroke="none" stroke-width="0.00" stroke-linejoin="round"/><path d="M163.80 455.67H279.25V478.32H163.80Z" fill="none" stroke="#002060" stroke-width="1.00" stroke-linejoin="round"/><path d="M164.40 515.50H225.35V538.15H164.40Z" fill-rule="evenodd" fill="#ffffff" stroke="#ff0000" stroke-width="1.00" stroke-linejoin="round"/><path d="M164.00 484.46H274.25V507.11H164.00Z" fill-rule="evenodd" fill="#ffffff" stroke="#8064a2" stroke-width="1.00" stroke-linejoin="round"/><path d="M170.85 583.98H283.05V606.63H170.85Z" fill-rule="evenodd" fill="#ffffff" stroke="#8064a2" stroke-width="1.00" stroke-linejoin="round"/><path d="M178.10 549.54H276.65V572.19H178.10Z" fill-rule="evenodd" fill="#ffffff" stroke="none" stroke-width="0.00" stroke-linejoin="round"/><path d="M222.89 568.28L222.89 578.20L223.60 578.20L222.17 579.63L220.75 578.20L221.46 578.20L221.46 568.28L222.89 568.28" fill-rule="evenodd" fill="#000000" stroke="#bfbfbf" stroke-width="2.00" stroke-linejoin="round"/><path d="M323.40 559.89H428.45V597.44H323.40Z" fill-rule="evenodd" fill="#ffffff" stroke="#9bbb59" stroke-width="1.00" stroke-linejoin="round"/><path d="M418.20 483.31H508.35V505.96H418.20Z" fill="none" stroke="#002060" stroke-width="1.00" stroke-linejoin="round"/><path d="M70.85 560.94H146.70V597.89H70.85Z" fill-rule="evenodd" fill="#ffffff" stroke="#9bbb59" stroke-width="1.00" stroke-linejoin="round"/><path d="M362.50 484.66H400.75V507.31H362.50Z" fill-rule="evenodd" fill="#ffffff" stroke="none" stroke-width="0.00" stroke-linejoin="round"/><path d="M307.40 482.76H362.50V506.01H307.40Z" fill-rule="evenodd" fill="#ffffff" stroke="#9bbb59" stroke-width="1.00" stroke-linejoin="round"/><path d="M453.00 567.89H543.15V590.54H453.00Z" fill="none" stroke="#002060" stroke-width="1.00" stroke-linejoin="round"/><path d="M138.72 480.98L152.35 468.11L151.87 467.60L153.85 467.66L153.80 469.64L153.32 469.13L139.68 482.00L138.72 480.98" fill-rule="evenodd" fill="#000000" stroke="#bfbfbf" stroke-width="2.00" stroke-linejoin="round"/><path d="M141.00 495.66L153.75 495.66L153.75 494.96L155.15 496.36L153.75 497.76L153.75 497.06L141.00 497.06L141.00 495.66" fill-rule="evenodd" fill="#000000" stroke="#bfbfbf" stroke-width="2.00" stroke-linejoin="round"/><path d="M137.21 506.53L153.68 515.48L154.02 514.86L154.58 516.76L152.68 517.32L153.01 516.71L136.54 507.76L137.21 506.53" fill-rule="evenodd" fill="#000000" stroke="#bfbfbf" stroke-width="2.00" stroke-linejoin="round"/><path d="M396.00 495.26L408.75 495.26L408.75 494.56L410.15 495.96L408.75 497.36L408.75 496.66L396.00 496.66L396.00 495.26" fill-rule="evenodd" fill="#000000" stroke="#bfbfbf" stroke-width="2.00" stroke-linejoin="round"/><path d="M431.75 577.08L444.50 577.08L444.50 576.38L445.90 577.78L444.50 579.18L444.50 578.48L431.75 578.48L431.75 577.08" fill-rule="evenodd" fill="#000000" stroke="#bfbfbf" stroke-width="2.00" stroke-linejoin="round"/><path d="M48.75 449.89H552.05V631.99H48.75Z" fill="none" stroke="#bfbfbf" stroke-width="2.00" stroke-linejoin="round"/><path d="M83.40 453.14H515.40V544.59H83.40Z" fill="none" stroke="#385d8a" stroke-width="0.50" stroke-linejoin="round"/><path d="M54.30 548.09H288.45V610.99H54.30Z" fill="none" stroke="#385d8a" stroke-width="0.50" stroke-linejoin="round"/><path d="M312.35 548.49H546.50V611.39H312.35Z" fill="none" stroke="#385d8a" stroke-width="0.50" stroke-linejoin="round"/><text x="53.52" y="624.94" font-size="9.00" fill="#000000" textLength="162.88" lengthAdjust="spacingAndGlyphs" xml:space="preserve">Art. 7.1 TUE Procedimiento alerta temprana </text><text x="91.10" y="465.07" font-size="8.04" fill="#365f91" textLength="5.90" lengthAdjust="spacingAndGlyphs" xml:space="preserve">1 </text><text x="61.82" y="555.19" font-size="8.04" fill="#365f91" textLength="5.90" lengthAdjust="spacingAndGlyphs" xml:space="preserve">2 </text><text x="315.31" y="556.87" font-size="8.04" fill="#365f91" textLength="5.90" lengthAdjust="spacingAndGlyphs" xml:space="preserve">3 </text><text x="91.46" y="498.91" font-size="11.04" fill="#000000" textLength="42.45" lengthAdjust="spacingAndGlyphs" xml:space="preserve">Iniciativa </text><text x="173.57" y="470.23" font-size="11.04" fill="#002060" textLength="98.38" lengthAdjust="spacingAndGlyphs" xml:space="preserve">1/3 Estados miembro </text><text x="172.97" y="530.11" font-size="11.04" fill="#ff0000" textLength="46.42" lengthAdjust="spacingAndGlyphs" xml:space="preserve"> Comisión </text><text x="172.97" y="499.03" font-size="11.04" fill="#7030a0" textLength="94.90" lengthAdjust="spacingAndGlyphs" xml:space="preserve">Parlamento Europeo </text><text x="180.77" y="598.66" font-size="11.04" fill="#7030a0" textLength="94.90" lengthAdjust="spacingAndGlyphs" xml:space="preserve">Parlamento Europeo </text><text x="185.57" y="563.98" font-size="11.04" fill="#000000" textLength="85.78" lengthAdjust="spacingAndGlyphs" xml:space="preserve">Previa aprobación  </text><text x="344.11" y="574.54" font-size="11.04" fill="#76923c" textLength="66.06" lengthAdjust="spacingAndGlyphs" xml:space="preserve">Consejo dirige </text><text x="336.19" y="589.06" font-size="11.04" fill="#76923c" textLength="81.97" lengthAdjust="spacingAndGlyphs" xml:space="preserve">recomendaciones </text><text x="426.46" y="497.95" font-size="11.04" fill="#002060" textLength="76.18" lengthAdjust="spacingAndGlyphs" xml:space="preserve">Estado miembro </text><text x="84.86" y="575.62" font-size="11.04" fill="#76923c" textLength="38.24" lengthAdjust="spacingAndGlyphs" xml:space="preserve">Consejo </text><text x="123.14" y="575.62" font-size="11.04" fill="#76923c" textLength="9.85" lengthAdjust="spacingAndGlyphs" xml:space="preserve">☑</text><text x="81.62" y="590.14" font-size="11.04" fill="#76923c" textLength="56.85" lengthAdjust="spacingAndGlyphs" xml:space="preserve">mayoría 4/5 </text><text x="370.03" y="499.03" font-size="11.04" fill="#000000" textLength="22.42" lengthAdjust="spacingAndGlyphs" xml:space="preserve">oirá  </text><text x="317.23" y="497.35" font-size="11.04" fill="#76923c" textLength="38.14" lengthAdjust="spacingAndGlyphs" xml:space="preserve">Consejo </text><text x="461.26" y="582.58" font-size="11.04" fill="#002060" textLength="76.20" lengthAdjust="spacingAndGlyphs" xml:space="preserve">Estado miembro </text></g></svg>